<svg width="16" height="16" viewBox="0 0 16 16" fill="none" xmlns="http://www.w3.org/2000/svg">
<path d="M14.25 8.0005C14.2501 9.64369 13.6032 11.2208 12.4491 12.3906C11.2951 13.5603 9.7268 14.2285 8.08375 14.2505H8C6.40442 14.2539 4.86872 13.6431 3.71125 12.5449C3.56662 12.4083 3.48218 12.2198 3.4765 12.021C3.47081 11.8221 3.54435 11.6292 3.68094 11.4846C3.81752 11.3399 4.00597 11.2555 4.20482 11.2498C4.40366 11.2441 4.59662 11.3177 4.74125 11.4542C5.42015 12.0952 6.27289 12.5218 7.1929 12.6809C8.11291 12.8399 9.05939 12.7243 9.91407 12.3485C10.7687 11.9727 11.4937 11.3533 11.9984 10.5678C12.503 9.78229 12.765 8.86547 12.7516 7.93191C12.7381 6.99835 12.4498 6.08946 11.9228 5.3188C11.3957 4.54815 10.6532 3.94992 9.78804 3.59887C8.92289 3.24782 7.97348 3.15952 7.05843 3.345C6.14338 3.53048 5.30328 3.98152 4.64312 4.64175C4.635 4.64987 4.6275 4.65737 4.61875 4.66487L3.43062 5.7505H4.5C4.69891 5.7505 4.88968 5.82951 5.03033 5.97017C5.17098 6.11082 5.25 6.30158 5.25 6.5005C5.25 6.69941 5.17098 6.89017 5.03033 7.03083C4.88968 7.17148 4.69891 7.2505 4.5 7.2505H1.5C1.30109 7.2505 1.11032 7.17148 0.96967 7.03083C0.829018 6.89017 0.75 6.69941 0.75 6.5005V3.5005C0.75 3.30159 0.829018 3.11082 0.96967 2.97017C1.11032 2.82951 1.30109 2.7505 1.5 2.7505C1.69891 2.7505 1.88968 2.82951 2.03033 2.97017C2.17098 3.11082 2.25 3.30159 2.25 3.5005V4.7955L3.5925 3.56675C4.46806 2.69589 5.58198 2.10393 6.79367 1.86557C8.00536 1.62722 9.2605 1.75316 10.4007 2.2275C11.5409 2.70184 12.515 3.50331 13.2 4.53076C13.8851 5.55821 14.2505 6.76559 14.25 8.0005Z" fill="#242424"/>
</svg>
