<svg width="16" height="16" viewBox="0 0 16 16" fill="none" xmlns="http://www.w3.org/2000/svg">
<path d="M14.5004 7C14.4992 8.06051 14.0774 9.07725 13.3275 9.82715C12.5776 10.577 11.5609 10.9988 10.5004 11H3.20727L5.35414 13.1462C5.44796 13.2401 5.50067 13.3673 5.50067 13.5C5.50067 13.6327 5.44796 13.7599 5.35414 13.8538C5.26032 13.9476 5.13308 14.0003 5.00039 14.0003C4.86771 14.0003 4.74046 13.9476 4.64664 13.8538L1.64664 10.8538C1.60016 10.8073 1.56328 10.7522 1.53811 10.6915C1.51295 10.6308 1.5 10.5657 1.5 10.5C1.5 10.4343 1.51295 10.3692 1.53811 10.3085C1.56328 10.2478 1.60016 10.1927 1.64664 10.1462L4.64664 7.14625C4.74046 7.05243 4.86771 6.99972 5.00039 6.99972C5.13308 6.99972 5.26032 7.05243 5.35414 7.14625C5.44796 7.24007 5.50067 7.36732 5.50067 7.5C5.50067 7.63268 5.44796 7.75993 5.35414 7.85375L3.20727 10H10.5004C11.296 10 12.0591 9.68393 12.6217 9.12132C13.1843 8.55871 13.5004 7.79565 13.5004 7C13.5004 6.20435 13.1843 5.44129 12.6217 4.87868C12.0591 4.31607 11.296 4 10.5004 4H5.00039C4.86779 4 4.74061 3.94732 4.64684 3.85355C4.55307 3.75979 4.50039 3.63261 4.50039 3.5C4.50039 3.36739 4.55307 3.24021 4.64684 3.14645C4.74061 3.05268 4.86779 3 5.00039 3H10.5004C11.5609 3.00116 12.5776 3.42296 13.3275 4.17285C14.0774 4.92275 14.4992 5.93949 14.5004 7Z" fill="#242424"/>
</svg>
