<svg width="16" height="16" viewBox="0 0 16 16" fill="none" xmlns="http://www.w3.org/2000/svg">
<path d="M13.8116 11.9685L13.7891 12.0071C13.7092 12.1334 13.5998 12.2386 13.4701 12.3135C13.3276 12.3958 13.1656 12.4386 13.001 12.4375H13.0006H3.00069C2.83589 12.4373 2.67405 12.3936 2.5315 12.3109C2.38895 12.2282 2.27072 12.1094 2.18873 11.9664C2.10673 11.8235 2.06387 11.6614 2.06446 11.4966C2.06505 11.3318 2.10908 11.1701 2.19209 11.0277L2.19216 11.0276C2.54631 10.4176 3.0631 8.71569 3.0631 6.5C3.0631 5.19049 3.5833 3.93462 4.50926 3.00866C5.43523 2.0827 6.6911 1.5625 8.0006 1.5625C9.31011 1.5625 10.566 2.0827 11.4919 3.00866C12.4179 3.93462 12.9381 5.19049 12.9381 6.5C12.9381 8.71508 13.4555 10.4176 13.8097 11.0276L13.8099 11.0279C13.8937 11.1704 13.938 11.3327 13.9383 11.498C13.9386 11.6633 13.8949 11.8257 13.8116 11.9685ZM13.0006 11.5625H13.1093L13.0546 11.4685C12.5789 10.652 12.0631 8.74657 12.0631 6.5C12.0631 5.42256 11.6351 4.38925 10.8732 3.62738C10.1114 2.86551 9.07805 2.4375 8.0006 2.4375C6.92316 2.4375 5.88985 2.86551 5.12798 3.62738C4.36612 4.38925 3.9381 5.42256 3.9381 6.5C3.9381 8.74718 3.42165 10.6526 2.94659 11.4686L2.8919 11.5625H3.0006H13.0006ZM10.4381 14C10.4381 14.116 10.392 14.2273 10.31 14.3094C10.2279 14.3914 10.1166 14.4375 10.0006 14.4375H6.0006C5.88457 14.4375 5.77329 14.3914 5.69125 14.3094C5.6092 14.2273 5.5631 14.116 5.5631 14C5.5631 13.884 5.6092 13.7727 5.69125 13.6906C5.77329 13.6086 5.88457 13.5625 6.0006 13.5625H10.0006C10.1166 13.5625 10.2279 13.6086 10.31 13.6906C10.392 13.7727 10.4381 13.884 10.4381 14Z" fill="#242424" stroke="#242424" stroke-width="0.125"/>
</svg>
