<svg width="16" height="16" viewBox="0 0 16 16" fill="none" xmlns="http://www.w3.org/2000/svg">
<path d="M14.5296 13.4683L11.5614 10.4989C12.4514 9.33923 12.8669 7.88443 12.7236 6.42965C12.5804 4.97487 11.8891 3.62904 10.7901 2.66518C9.69106 1.70132 8.26654 1.1916 6.8055 1.23941C5.34447 1.28723 3.95632 1.889 2.92266 2.92266C1.889 3.95632 1.28723 5.34447 1.23941 6.8055C1.1916 8.26654 1.70132 9.69106 2.66518 10.7901C3.62904 11.8891 4.97487 12.5804 6.42965 12.7236C7.88443 12.8669 9.33923 12.4514 10.4989 11.5614L13.4696 14.5327C13.5393 14.6025 13.6222 14.6578 13.7133 14.6955C13.8045 14.7333 13.9022 14.7527 14.0008 14.7527C14.0995 14.7527 14.1972 14.7333 14.2883 14.6955C14.3795 14.6578 14.4623 14.6025 14.5321 14.5327C14.6018 14.4629 14.6572 14.3801 14.6949 14.2889C14.7327 14.1978 14.7521 14.1001 14.7521 14.0014C14.7521 13.9028 14.7327 13.8051 14.6949 13.7139C14.6572 13.6228 14.6018 13.54 14.5321 13.4702L14.5296 13.4683ZM2.74894 6.99894C2.74894 6.15837 2.9982 5.33667 3.46519 4.63776C3.93219 3.93886 4.59595 3.39412 5.37253 3.07245C6.14912 2.75078 7.00365 2.66661 7.82807 2.8306C8.65249 2.99459 9.40977 3.39936 10.0041 3.99373C10.5985 4.58811 11.0033 5.34538 11.1673 6.1698C11.3313 6.99422 11.2471 7.84876 10.9254 8.62534C10.6038 9.40193 10.059 10.0657 9.36011 10.5327C8.6612 10.9997 7.83951 11.2489 6.99894 11.2489C5.87212 11.2478 4.79179 10.7996 3.99501 10.0029C3.19823 9.20608 2.7501 8.12575 2.74894 6.99894Z" fill="#242424"/>
</svg>
