<svg width="16" height="16" viewBox="0 0 16 16" fill="none" xmlns="http://www.w3.org/2000/svg">
<path d="M11.5 11.4479H11.4479V11.5V13C11.4479 13.1188 11.4007 13.2327 11.3167 13.3167C11.2327 13.4007 11.1188 13.4479 11 13.4479C10.8812 13.4479 10.7673 13.4007 10.6833 13.3167C10.5993 13.2327 10.5521 13.1188 10.5521 13V11.5V11.4479H10.5H9C8.88121 11.4479 8.76728 11.4007 8.68328 11.3167C8.59928 11.2327 8.55208 11.1188 8.55208 11C8.55208 10.8812 8.59928 10.7673 8.68328 10.6833C8.76728 10.5993 8.88121 10.5521 9 10.5521H10.5H10.5521V10.5V9C10.5521 8.88121 10.5993 8.76728 10.6833 8.68328C10.7673 8.59928 10.8812 8.55208 11 8.55208C11.1188 8.55208 11.2327 8.59928 11.3167 8.68328C11.4007 8.76728 11.4479 8.88121 11.4479 9V10.5V10.5521H11.5H13C13.1188 10.5521 13.2327 10.5993 13.3167 10.6833C13.4007 10.7673 13.4479 10.8812 13.4479 11C13.4479 11.1188 13.4007 11.2327 13.3167 11.3167C13.2327 11.4007 13.1188 11.4479 13 11.4479H11.5ZM3.64001 2.96463C4.04257 2.69565 4.51585 2.55208 5 2.55208C5.64923 2.55208 6.27187 2.80999 6.73094 3.26906C7.19001 3.72814 7.44792 4.35077 7.44792 5C7.44792 5.48415 7.30435 5.95743 7.03537 6.35999C6.76639 6.76255 6.38408 7.0763 5.93678 7.26158C5.48948 7.44686 4.99729 7.49534 4.52244 7.40088C4.04759 7.30643 3.61141 7.07329 3.26906 6.73094C2.92672 6.38859 2.69357 5.95242 2.59912 5.47757C2.50467 5.00272 2.55314 4.51052 2.73842 4.06322C2.9237 3.61593 3.23745 3.23361 3.64001 2.96463ZM4.13771 6.29051C4.39295 6.46106 4.69303 6.55208 5 6.55208C5.41164 6.55208 5.80642 6.38856 6.09749 6.09749C6.38856 5.80642 6.55208 5.41164 6.55208 5C6.55208 4.69303 6.46106 4.39295 6.29051 4.13771C6.11997 3.88247 5.87756 3.68354 5.59396 3.56606C5.31035 3.44859 4.99828 3.41785 4.69721 3.47774C4.39613 3.53763 4.11958 3.68545 3.90251 3.90251C3.68545 4.11958 3.53763 4.39613 3.47774 4.69721C3.41785 4.99828 3.44859 5.31035 3.56606 5.59396C3.68354 5.87756 3.88247 6.11997 4.13771 6.29051ZM12.36 7.03537C11.9574 7.30435 11.4842 7.44792 11 7.44792C10.3508 7.44792 9.72814 7.19001 9.26906 6.73094C8.80999 6.27187 8.55208 5.64923 8.55208 5C8.55208 4.51585 8.69565 4.04257 8.96463 3.64001C9.23361 3.23745 9.61593 2.9237 10.0632 2.73842C10.5105 2.55314 11.0027 2.50467 11.4776 2.59912C11.9524 2.69357 12.3886 2.92672 12.7309 3.26906C13.0733 3.61141 13.3064 4.04759 13.4009 4.52244C13.4953 4.99729 13.4469 5.48948 13.2616 5.93678C13.0763 6.38408 12.7625 6.76639 12.36 7.03537ZM11.8623 3.70949C11.6071 3.53895 11.307 3.44792 11 3.44792C10.5884 3.44792 10.1936 3.61144 9.90251 3.90251C9.61144 4.19358 9.44792 4.58836 9.44792 5C9.44792 5.30697 9.53895 5.60705 9.70949 5.86229C9.88004 6.11753 10.1224 6.31647 10.406 6.43394C10.6897 6.55141 11.0017 6.58215 11.3028 6.52226C11.6039 6.46237 11.8804 6.31455 12.0975 6.09749C12.3146 5.88043 12.4624 5.60387 12.5223 5.3028C12.5822 5.00172 12.5514 4.68965 12.4339 4.40604C12.3165 4.12244 12.1175 3.88004 11.8623 3.70949ZM3.64001 8.96463C4.04257 8.69565 4.51585 8.55208 5 8.55208C5.64923 8.55208 6.27187 8.80999 6.73094 9.26906C7.19001 9.72814 7.44792 10.3508 7.44792 11C7.44792 11.4842 7.30435 11.9574 7.03537 12.36C6.76639 12.7625 6.38408 13.0763 5.93678 13.2616C5.48948 13.4469 4.99729 13.4953 4.52244 13.4009C4.04759 13.3064 3.61141 13.0733 3.26906 12.7309C2.92672 12.3886 2.69357 11.9524 2.59912 11.4776C2.50467 11.0027 2.55314 10.5105 2.73842 10.0632C2.9237 9.61593 3.23745 9.23361 3.64001 8.96463ZM4.13771 12.2905C4.39295 12.4611 4.69303 12.5521 5 12.5521C5.41164 12.5521 5.80642 12.3886 6.09749 12.0975C6.38856 11.8064 6.55208 11.4116 6.55208 11C6.55208 10.693 6.46106 10.3929 6.29051 10.1377C6.11997 9.88247 5.87756 9.68354 5.59396 9.56606C5.31035 9.44859 4.99828 9.41785 4.69721 9.47774C4.39613 9.53763 4.11958 9.68545 3.90251 9.90251C3.68545 10.1196 3.53763 10.3961 3.47774 10.6972C3.41785 10.9983 3.44859 11.3104 3.56606 11.594C3.68354 11.8776 3.88247 12.12 4.13771 12.2905Z" fill="#242424" stroke="#242424" stroke-width="0.104167"/>
</svg>
