<svg width="16" height="16" viewBox="0 0 16 16" fill="none" xmlns="http://www.w3.org/2000/svg">
<path d="M13.9269 7.50441L13.9309 7.55208H13.9787H14.5C14.6188 7.55208 14.7327 7.59927 14.8167 7.68327C14.9007 7.76728 14.9479 7.8812 14.9479 8C14.9479 8.11879 14.9007 8.23272 14.8167 8.31672C14.7327 8.40073 14.6188 8.44792 14.5 8.44792H13.9787H13.9309L13.9269 8.49559C13.8079 9.89619 13.1975 11.2096 12.2035 12.2035C11.2096 13.1975 9.89619 13.8079 8.49559 13.9269L8.44792 13.9309V13.9787V14.5C8.44792 14.6188 8.40073 14.7327 8.31672 14.8167C8.23272 14.9007 8.11879 14.9479 8 14.9479C7.8812 14.9479 7.76728 14.9007 7.68327 14.8167C7.59927 14.7327 7.55208 14.6188 7.55208 14.5V13.9787V13.9309L7.50441 13.9269C6.10381 13.8079 4.79039 13.1975 3.79645 12.2035C2.80251 11.2096 2.19209 9.89619 2.07315 8.49559L2.0691 8.44792H2.02125H1.5C1.3812 8.44792 1.26728 8.40073 1.18328 8.31672C1.09927 8.23272 1.05208 8.11879 1.05208 8C1.05208 7.8812 1.09927 7.76728 1.18328 7.68327C1.26728 7.59927 1.38121 7.55208 1.5 7.55208H2.02125H2.0691L2.07315 7.50441C2.19209 6.10381 2.80251 4.79039 3.79645 3.79645C4.79039 2.80251 6.10381 2.19209 7.50441 2.07315L7.55208 2.0691V2.02125V1.5C7.55208 1.38121 7.59927 1.26728 7.68327 1.18328C7.76728 1.09927 7.8812 1.05208 8 1.05208C8.11879 1.05208 8.23272 1.09927 8.31672 1.18328C8.40073 1.26728 8.44792 1.3812 8.44792 1.5V2.02125V2.0691L8.49559 2.07315C9.89619 2.19209 11.2096 2.80251 12.2035 3.79645C13.1975 4.79039 13.8079 6.10381 13.9269 7.50441ZM8.44792 12.975V13.0327L8.50529 13.0268C9.66417 12.9086 10.7468 12.3942 11.5705 11.5705C12.3942 10.7468 12.9086 9.66417 13.0268 8.50529L13.0327 8.44792H12.975H12.5C12.3812 8.44792 12.2673 8.40073 12.1833 8.31672C12.0993 8.23272 12.0521 8.11879 12.0521 8C12.0521 7.8812 12.0993 7.76728 12.1833 7.68327C12.2673 7.59927 12.3812 7.55208 12.5 7.55208H12.975H13.0327L13.0268 7.49471C12.9086 6.33583 12.3942 5.25321 11.5705 4.42951C10.7468 3.6058 9.66417 3.09143 8.50529 2.97319L8.44792 2.96733V3.025V3.5C8.44792 3.61879 8.40073 3.73272 8.31672 3.81672C8.23272 3.90073 8.11879 3.94792 8 3.94792C7.8812 3.94792 7.76728 3.90073 7.68327 3.81672C7.59927 3.73272 7.55208 3.61879 7.55208 3.5V3.025V2.96733L7.49471 2.97319C6.33583 3.09143 5.25321 3.6058 4.42951 4.42951C3.6058 5.25321 3.09143 6.33583 2.97319 7.49471L2.96733 7.55208H3.025H3.5C3.61879 7.55208 3.73272 7.59927 3.81672 7.68327C3.90073 7.76728 3.94792 7.8812 3.94792 8C3.94792 8.11879 3.90073 8.23272 3.81672 8.31672C3.73272 8.40073 3.61879 8.44792 3.5 8.44792H3.025H2.96733L2.97319 8.50529C3.09143 9.66417 3.6058 10.7468 4.42951 11.5705C5.25321 12.3942 6.33583 12.9086 7.49471 13.0268L7.55208 13.0327V12.975V12.5C7.55208 12.3812 7.59927 12.2673 7.68327 12.1833C7.76728 12.0993 7.8812 12.0521 8 12.0521C8.11879 12.0521 8.23272 12.0993 8.31672 12.1833C8.40073 12.2673 8.44792 12.3812 8.44792 12.5V12.975ZM6.64001 5.96463C7.04257 5.69565 7.51585 5.55208 8 5.55208C8.64923 5.55208 9.27186 5.80999 9.73094 6.26906C10.19 6.72813 10.4479 7.35077 10.4479 8C10.4479 8.48415 10.3043 8.95743 10.0354 9.35999C9.76639 9.76255 9.38408 10.0763 8.93678 10.2616C8.48948 10.4469 7.99728 10.4953 7.52243 10.4009C7.04759 10.3064 6.61141 10.0733 6.26906 9.73094C5.92671 9.38859 5.69357 8.95241 5.59912 8.47756C5.50467 8.00272 5.55314 7.51052 5.73842 7.06322C5.9237 6.61592 6.23745 6.23361 6.64001 5.96463ZM7.13771 9.29051C7.39295 9.46105 7.69303 9.55208 8 9.55208C8.41164 9.55208 8.80642 9.38856 9.09749 9.09749C9.38856 8.80642 9.55208 8.41164 9.55208 8C9.55208 7.69303 9.46105 7.39295 9.29051 7.13771C9.11996 6.88247 8.87756 6.68354 8.59396 6.56606C8.31035 6.44859 7.99828 6.41785 7.6972 6.47774C7.39613 6.53763 7.11957 6.68545 6.90251 6.90251C6.68545 7.11957 6.53763 7.39613 6.47774 7.6972C6.41785 7.99828 6.44859 8.31035 6.56606 8.59396C6.68354 8.87756 6.88247 9.11996 7.13771 9.29051Z" fill="#242424" stroke="#242424" stroke-width="0.104167"/>
</svg>
