<svg width="16" height="16" viewBox="0 0 16 16" fill="none" xmlns="http://www.w3.org/2000/svg">
<path d="M8 13.5521H8.00006C9.47204 13.5504 10.8832 12.9649 11.9241 11.9241C12.9649 10.8832 13.5504 9.47203 13.5521 8.00006V8C13.5521 6.9019 13.2265 5.82846 12.6164 4.91543C12.0063 4.00239 11.1392 3.29077 10.1247 2.87054C9.11018 2.45032 7.99384 2.34037 6.91685 2.5546C5.83985 2.76883 4.85056 3.29761 4.07409 4.07408C3.29761 4.85056 2.76883 5.83984 2.5546 6.91684C2.34037 7.99384 2.45032 9.11018 2.87055 10.1247C3.29077 11.1392 4.0024 12.0063 4.91543 12.6164C5.82847 13.2265 6.90191 13.5521 8 13.5521ZM8.5 10.9479H8.44792V11V11.5C8.44792 11.6188 8.40073 11.7327 8.31673 11.8167C8.23273 11.9007 8.1188 11.9479 8 11.9479C7.88121 11.9479 7.76728 11.9007 7.68328 11.8167C7.59928 11.7327 7.55209 11.6188 7.55209 11.5V11V10.9479H7.5H6.5C6.38121 10.9479 6.26728 10.9007 6.18328 10.8167C6.09928 10.7327 6.05209 10.6188 6.05209 10.5C6.05209 10.3812 6.09928 10.2673 6.18328 10.1833C6.26728 10.0993 6.38121 10.0521 6.5 10.0521H8.75C8.96273 10.0521 9.16674 9.96758 9.31716 9.81716C9.46758 9.66674 9.55209 9.46273 9.55209 9.25C9.55209 9.03727 9.46758 8.83326 9.31716 8.68284C9.16674 8.53242 8.96273 8.44792 8.75 8.44792H7.25C6.79969 8.44792 6.36782 8.26903 6.0494 7.95061C5.73097 7.63219 5.55209 7.20032 5.55209 6.75C5.55209 6.29968 5.73097 5.86781 6.0494 5.54939C6.36782 5.23097 6.79969 5.05208 7.25 5.05208H7.5H7.55209V5V4.5C7.55209 4.38121 7.59928 4.26728 7.68328 4.18328C7.76728 4.09927 7.88121 4.05208 8 4.05208C8.1188 4.05208 8.23273 4.09927 8.31673 4.18328C8.40073 4.26728 8.44792 4.38121 8.44792 4.5V5V5.05208H8.5H9.5C9.6188 5.05208 9.73273 5.09927 9.81673 5.18328C9.90073 5.26728 9.94792 5.38121 9.94792 5.5C9.94792 5.61879 9.90073 5.73272 9.81673 5.81672C9.73273 5.90073 9.6188 5.94792 9.5 5.94792H7.25C7.03728 5.94792 6.83326 6.03242 6.68284 6.18284C6.53242 6.33326 6.44792 6.53727 6.44792 6.75C6.44792 6.96273 6.53242 7.16674 6.68284 7.31716C6.83326 7.46758 7.03728 7.55208 7.25 7.55208H8.75C9.20032 7.55208 9.63219 7.73097 9.95061 8.04939C10.269 8.36781 10.4479 8.79968 10.4479 9.25C10.4479 9.70032 10.269 10.1322 9.95061 10.4506C9.63219 10.769 9.20032 10.9479 8.75 10.9479H8.5ZM4.41773 2.63875C5.47808 1.93025 6.72471 1.55209 7.99998 1.55208C9.70952 1.5539 11.3485 2.23381 12.5574 3.44264C13.7662 4.65148 14.4461 6.2905 14.4479 8.00005C14.4479 9.27531 14.0697 10.5219 13.3613 11.5823C12.6527 12.6426 11.6457 13.4691 10.4675 13.9571C9.28931 14.4451 7.99285 14.5728 6.74208 14.324C5.4913 14.0752 4.3424 13.4611 3.44064 12.5594C2.53888 11.6576 1.92478 10.5087 1.67598 9.25793C1.42719 8.00715 1.55488 6.71069 2.0429 5.53249C2.53093 4.35429 3.35738 3.34726 4.41773 2.63875Z" fill="#242424" stroke="#242424" stroke-width="0.104167"/>
</svg>
