<svg width="16" height="16" viewBox="0 0 16 16" fill="none" xmlns="http://www.w3.org/2000/svg">
<mask id="path-1-inside-1_1254_17514" fill="white">
<path d="M7.99905 4.99905C7.40571 4.99905 6.82569 5.175 6.33234 5.50464C5.83899 5.83429 5.45448 6.30282 5.22741 6.851C5.00035 7.39918 4.94094 8.00238 5.0567 8.58432C5.17245 9.16627 5.45817 9.70082 5.87773 10.1204C6.29729 10.5399 6.83184 10.8257 7.41378 10.9414C7.99572 11.0572 8.59892 10.9978 9.1471 10.7707C9.69528 10.5436 10.1638 10.1591 10.4935 9.66576C10.8231 9.17242 10.9991 8.5924 10.9991 7.99905C10.9982 7.20366 10.6819 6.44108 10.1195 5.87865C9.55703 5.31622 8.79445 4.99988 7.99905 4.99905ZM7.99905 9.99905C7.60349 9.99905 7.21681 9.88175 6.88791 9.66199C6.55901 9.44223 6.30267 9.12987 6.15129 8.76442C5.99992 8.39897 5.96031 7.99683 6.03748 7.60887C6.11465 7.22091 6.30513 6.86454 6.58484 6.58484C6.86454 6.30513 7.22091 6.11465 7.60887 6.03748C7.99683 5.96031 8.39897 5.99992 8.76442 6.15129C9.12987 6.30267 9.44223 6.55901 9.66199 6.88791C9.88175 7.21681 9.99905 7.60349 9.99905 7.99905C9.99905 8.52949 9.78834 9.03819 9.41327 9.41327C9.03819 9.78834 8.52949 9.99905 7.99905 9.99905ZM13.4991 8.13405C13.5016 8.04405 13.5016 7.95405 13.4991 7.86405L14.4316 6.69905C14.4804 6.63788 14.5143 6.56609 14.5304 6.48944C14.5464 6.4128 14.5443 6.33346 14.5241 6.2578C14.3712 5.68318 14.1425 5.13146 13.8441 4.61718C13.805 4.54988 13.7507 4.49263 13.6856 4.44998C13.6205 4.40734 13.5464 4.38049 13.4691 4.37155L11.9866 4.20655C11.9249 4.14155 11.8624 4.07905 11.7991 4.01905L11.6241 2.5328C11.6151 2.45543 11.5881 2.38124 11.5453 2.31613C11.5026 2.25103 11.4452 2.19681 11.3778 2.1578C10.8633 1.85989 10.3117 1.63145 9.73718 1.47843C9.66147 1.4583 9.5821 1.45624 9.50546 1.47242C9.42881 1.48859 9.35704 1.52255 9.29593 1.57155L8.13405 2.49905C8.04405 2.49905 7.95405 2.49905 7.86405 2.49905L6.69905 1.56843C6.63788 1.51953 6.56609 1.48569 6.48944 1.46962C6.4128 1.45355 6.33346 1.45571 6.2578 1.47593C5.68327 1.62907 5.13159 1.85773 4.61718 2.15593C4.54988 2.19501 4.49263 2.24926 4.44998 2.31436C4.40734 2.37946 4.38049 2.45362 4.37155 2.53093L4.20655 4.01593C4.14155 4.07801 4.07905 4.14051 4.01905 4.20343L2.5328 4.37405C2.45543 4.38305 2.38124 4.41 2.31613 4.45276C2.25103 4.49551 2.19681 4.55288 2.1578 4.6203C1.85989 5.13478 1.63145 5.68645 1.47843 6.26093C1.4583 6.33663 1.45624 6.416 1.47242 6.49265C1.48859 6.56929 1.52255 6.64106 1.57155 6.70218L2.49905 7.86405C2.49905 7.95405 2.49905 8.04405 2.49905 8.13405L1.56843 9.29905C1.51953 9.36022 1.48569 9.43202 1.46962 9.50866C1.45355 9.5853 1.45571 9.66465 1.47593 9.7403C1.6288 10.3149 1.85747 10.8666 2.15593 11.3809C2.19501 11.4482 2.24926 11.5055 2.31436 11.5481C2.37946 11.5908 2.45362 11.6176 2.53093 11.6266L4.01343 11.7916C4.07551 11.8566 4.13801 11.9191 4.20093 11.9791L4.37405 13.4653C4.38305 13.5427 4.41 13.6169 4.45276 13.682C4.49551 13.7471 4.55288 13.8013 4.6203 13.8403C5.13478 14.1382 5.68645 14.3667 6.26093 14.5197C6.33663 14.5398 6.416 14.5419 6.49265 14.5257C6.56929 14.5095 6.64106 14.4756 6.70218 14.4266L7.86405 13.4991C7.95405 13.5016 8.04405 13.5016 8.13405 13.4991L9.29905 14.4316C9.36022 14.4804 9.43202 14.5143 9.50866 14.5304C9.5853 14.5464 9.66465 14.5443 9.7403 14.5241C10.3149 14.3712 10.8666 14.1425 11.3809 13.8441C11.4482 13.805 11.5055 13.7507 11.5481 13.6856C11.5908 13.6205 11.6176 13.5464 11.6266 13.4691L11.7916 11.9866C11.8566 11.9249 11.9191 11.8624 11.9791 11.7991L13.4653 11.6241C13.5427 11.6151 13.6169 11.5881 13.682 11.5453C13.7471 11.5026 13.8013 11.4452 13.8403 11.3778C14.1382 10.8633 14.3667 10.3117 14.5197 9.73718C14.5398 9.66147 14.5419 9.5821 14.5257 9.50546C14.5095 9.42881 14.4756 9.35704 14.4266 9.29593L13.4991 8.13405ZM12.4928 7.7278C12.5034 7.90848 12.5034 8.08962 12.4928 8.2703C12.4854 8.394 12.5241 8.51606 12.6016 8.6128L13.4884 9.72093C13.3867 10.0443 13.2564 10.3581 13.0991 10.6584L11.6866 10.8184C11.5635 10.8321 11.45 10.8909 11.3678 10.9834C11.2475 11.1187 11.1194 11.2469 10.9841 11.3672C10.8915 11.4493 10.8327 11.5629 10.8191 11.6859L10.6622 13.0972C10.3619 13.2546 10.0481 13.3849 9.72468 13.4866L8.61593 12.5997C8.5272 12.5288 8.41699 12.4902 8.30343 12.4903H8.27343C8.09275 12.5009 7.9116 12.5009 7.73093 12.4903C7.60723 12.4829 7.48517 12.5216 7.38843 12.5991L6.27718 13.4866C5.95376 13.3848 5.64003 13.2545 5.33968 13.0972L5.17968 11.6866C5.16602 11.5635 5.10723 11.45 5.01468 11.3678C4.87937 11.2475 4.75123 11.1194 4.63093 10.9841C4.54876 10.8915 4.43519 10.8327 4.31218 10.8191L2.90093 10.6616C2.74355 10.3612 2.61324 10.0475 2.51155 9.72405L3.39843 8.6153C3.47587 8.51856 3.51462 8.3965 3.50718 8.2728C3.49655 8.09213 3.49655 7.91098 3.50718 7.7303C3.51462 7.6066 3.47587 7.48455 3.39843 7.3878L2.51155 6.27718C2.61332 5.95376 2.74362 5.64003 2.90093 5.33968L4.31155 5.17968C4.43456 5.16602 4.54814 5.10723 4.6303 5.01468C4.75061 4.87937 4.87874 4.75123 5.01405 4.63093C5.10697 4.54871 5.16601 4.43487 5.17968 4.31155L5.33655 2.90093C5.63687 2.74355 5.95061 2.61324 6.27405 2.51155L7.3828 3.39843C7.47955 3.47587 7.6016 3.51462 7.7253 3.50718C7.90598 3.49655 8.08712 3.49655 8.2678 3.50718C8.3915 3.51462 8.51356 3.47587 8.6103 3.39843L9.72093 2.51155C10.0443 2.61332 10.3581 2.74362 10.6584 2.90093L10.8184 4.31155C10.8321 4.43456 10.8909 4.54814 10.9834 4.6303C11.1187 4.75061 11.2469 4.87874 11.3672 5.01405C11.4493 5.10661 11.5629 5.1654 11.6859 5.17905L13.0972 5.33593C13.2546 5.63624 13.3849 5.94998 13.4866 6.27343L12.5997 7.38218C12.5215 7.47974 12.4827 7.60305 12.4909 7.7278H12.4928Z"/>
</mask>
<path d="M7.99905 4.99905C7.40571 4.99905 6.82569 5.175 6.33234 5.50464C5.83899 5.83429 5.45448 6.30282 5.22741 6.851C5.00035 7.39918 4.94094 8.00238 5.0567 8.58432C5.17245 9.16627 5.45817 9.70082 5.87773 10.1204C6.29729 10.5399 6.83184 10.8257 7.41378 10.9414C7.99572 11.0572 8.59892 10.9978 9.1471 10.7707C9.69528 10.5436 10.1638 10.1591 10.4935 9.66576C10.8231 9.17242 10.9991 8.5924 10.9991 7.99905C10.9982 7.20366 10.6819 6.44108 10.1195 5.87865C9.55703 5.31622 8.79445 4.99988 7.99905 4.99905ZM7.99905 9.99905C7.60349 9.99905 7.21681 9.88175 6.88791 9.66199C6.55901 9.44223 6.30267 9.12987 6.15129 8.76442C5.99992 8.39897 5.96031 7.99683 6.03748 7.60887C6.11465 7.22091 6.30513 6.86454 6.58484 6.58484C6.86454 6.30513 7.22091 6.11465 7.60887 6.03748C7.99683 5.96031 8.39897 5.99992 8.76442 6.15129C9.12987 6.30267 9.44223 6.55901 9.66199 6.88791C9.88175 7.21681 9.99905 7.60349 9.99905 7.99905C9.99905 8.52949 9.78834 9.03819 9.41327 9.41327C9.03819 9.78834 8.52949 9.99905 7.99905 9.99905ZM13.4991 8.13405C13.5016 8.04405 13.5016 7.95405 13.4991 7.86405L14.4316 6.69905C14.4804 6.63788 14.5143 6.56609 14.5304 6.48944C14.5464 6.4128 14.5443 6.33346 14.5241 6.2578C14.3712 5.68318 14.1425 5.13146 13.8441 4.61718C13.805 4.54988 13.7507 4.49263 13.6856 4.44998C13.6205 4.40734 13.5464 4.38049 13.4691 4.37155L11.9866 4.20655C11.9249 4.14155 11.8624 4.07905 11.7991 4.01905L11.6241 2.5328C11.6151 2.45543 11.5881 2.38124 11.5453 2.31613C11.5026 2.25103 11.4452 2.19681 11.3778 2.1578C10.8633 1.85989 10.3117 1.63145 9.73718 1.47843C9.66147 1.4583 9.5821 1.45624 9.50546 1.47242C9.42881 1.48859 9.35704 1.52255 9.29593 1.57155L8.13405 2.49905C8.04405 2.49905 7.95405 2.49905 7.86405 2.49905L6.69905 1.56843C6.63788 1.51953 6.56609 1.48569 6.48944 1.46962C6.4128 1.45355 6.33346 1.45571 6.2578 1.47593C5.68327 1.62907 5.13159 1.85773 4.61718 2.15593C4.54988 2.19501 4.49263 2.24926 4.44998 2.31436C4.40734 2.37946 4.38049 2.45362 4.37155 2.53093L4.20655 4.01593C4.14155 4.07801 4.07905 4.14051 4.01905 4.20343L2.5328 4.37405C2.45543 4.38305 2.38124 4.41 2.31613 4.45276C2.25103 4.49551 2.19681 4.55288 2.1578 4.6203C1.85989 5.13478 1.63145 5.68645 1.47843 6.26093C1.4583 6.33663 1.45624 6.416 1.47242 6.49265C1.48859 6.56929 1.52255 6.64106 1.57155 6.70218L2.49905 7.86405C2.49905 7.95405 2.49905 8.04405 2.49905 8.13405L1.56843 9.29905C1.51953 9.36022 1.48569 9.43202 1.46962 9.50866C1.45355 9.5853 1.45571 9.66465 1.47593 9.7403C1.6288 10.3149 1.85747 10.8666 2.15593 11.3809C2.19501 11.4482 2.24926 11.5055 2.31436 11.5481C2.37946 11.5908 2.45362 11.6176 2.53093 11.6266L4.01343 11.7916C4.07551 11.8566 4.13801 11.9191 4.20093 11.9791L4.37405 13.4653C4.38305 13.5427 4.41 13.6169 4.45276 13.682C4.49551 13.7471 4.55288 13.8013 4.6203 13.8403C5.13478 14.1382 5.68645 14.3667 6.26093 14.5197C6.33663 14.5398 6.416 14.5419 6.49265 14.5257C6.56929 14.5095 6.64106 14.4756 6.70218 14.4266L7.86405 13.4991C7.95405 13.5016 8.04405 13.5016 8.13405 13.4991L9.29905 14.4316C9.36022 14.4804 9.43202 14.5143 9.50866 14.5304C9.5853 14.5464 9.66465 14.5443 9.7403 14.5241C10.3149 14.3712 10.8666 14.1425 11.3809 13.8441C11.4482 13.805 11.5055 13.7507 11.5481 13.6856C11.5908 13.6205 11.6176 13.5464 11.6266 13.4691L11.7916 11.9866C11.8566 11.9249 11.9191 11.8624 11.9791 11.7991L13.4653 11.6241C13.5427 11.6151 13.6169 11.5881 13.682 11.5453C13.7471 11.5026 13.8013 11.4452 13.8403 11.3778C14.1382 10.8633 14.3667 10.3117 14.5197 9.73718C14.5398 9.66147 14.5419 9.5821 14.5257 9.50546C14.5095 9.42881 14.4756 9.35704 14.4266 9.29593L13.4991 8.13405ZM12.4928 7.7278C12.5034 7.90848 12.5034 8.08962 12.4928 8.2703C12.4854 8.394 12.5241 8.51606 12.6016 8.6128L13.4884 9.72093C13.3867 10.0443 13.2564 10.3581 13.0991 10.6584L11.6866 10.8184C11.5635 10.8321 11.45 10.8909 11.3678 10.9834C11.2475 11.1187 11.1194 11.2469 10.9841 11.3672C10.8915 11.4493 10.8327 11.5629 10.8191 11.6859L10.6622 13.0972C10.3619 13.2546 10.0481 13.3849 9.72468 13.4866L8.61593 12.5997C8.5272 12.5288 8.41699 12.4902 8.30343 12.4903H8.27343C8.09275 12.5009 7.9116 12.5009 7.73093 12.4903C7.60723 12.4829 7.48517 12.5216 7.38843 12.5991L6.27718 13.4866C5.95376 13.3848 5.64003 13.2545 5.33968 13.0972L5.17968 11.6866C5.16602 11.5635 5.10723 11.45 5.01468 11.3678C4.87937 11.2475 4.75123 11.1194 4.63093 10.9841C4.54876 10.8915 4.43519 10.8327 4.31218 10.8191L2.90093 10.6616C2.74355 10.3612 2.61324 10.0475 2.51155 9.72405L3.39843 8.6153C3.47587 8.51856 3.51462 8.3965 3.50718 8.2728C3.49655 8.09213 3.49655 7.91098 3.50718 7.7303C3.51462 7.6066 3.47587 7.48455 3.39843 7.3878L2.51155 6.27718C2.61332 5.95376 2.74362 5.64003 2.90093 5.33968L4.31155 5.17968C4.43456 5.16602 4.54814 5.10723 4.6303 5.01468C4.75061 4.87937 4.87874 4.75123 5.01405 4.63093C5.10697 4.54871 5.16601 4.43487 5.17968 4.31155L5.33655 2.90093C5.63687 2.74355 5.95061 2.61324 6.27405 2.51155L7.3828 3.39843C7.47955 3.47587 7.6016 3.51462 7.7253 3.50718C7.90598 3.49655 8.08712 3.49655 8.2678 3.50718C8.3915 3.51462 8.51356 3.47587 8.6103 3.39843L9.72093 2.51155C10.0443 2.61332 10.3581 2.74362 10.6584 2.90093L10.8184 4.31155C10.8321 4.43456 10.8909 4.54814 10.9834 4.6303C11.1187 4.75061 11.2469 4.87874 11.3672 5.01405C11.4493 5.10661 11.5629 5.1654 11.6859 5.17905L13.0972 5.33593C13.2546 5.63624 13.3849 5.94998 13.4866 6.27343L12.5997 7.38218C12.5215 7.47974 12.4827 7.60305 12.4909 7.7278H12.4928Z" fill="#242424" stroke="#242424" stroke-width="0.25" mask="url(#path-1-inside-1_1254_17514)"/>
</svg>
