<svg width="16" height="16" viewBox="0 0 16 16" fill="none" xmlns="http://www.w3.org/2000/svg">
<path d="M11.7497 5.5C11.4582 5.49968 11.1713 5.57253 10.9153 5.71187C10.8387 5.47485 10.7125 5.25691 10.5449 5.0726C10.3774 4.88829 10.1724 4.74187 9.94376 4.64313C9.7151 4.54438 9.46798 4.49559 9.21895 4.50001C8.96991 4.50443 8.72468 4.56196 8.49966 4.66875V2.75C8.49966 2.28587 8.31529 1.84075 7.9871 1.51256C7.65891 1.18437 7.21379 1 6.74966 1C6.28553 1 5.84042 1.18437 5.51223 1.51256C5.18404 1.84075 4.99966 2.28587 4.99966 2.75V7.75L4.76091 7.36688C4.64547 7.16805 4.492 6.9939 4.30926 6.85438C4.12652 6.71487 3.91809 6.61271 3.69586 6.55374C3.24707 6.43466 2.76934 6.49873 2.36779 6.73187C1.96623 6.96502 1.67374 7.34813 1.55466 7.79692C1.43557 8.24572 1.49965 8.72345 1.73279 9.125L2.02466 9.63937C4.17529 13.4306 5.06529 15 7.99966 15C9.45785 14.9983 10.8558 14.4184 11.8869 13.3873C12.918 12.3562 13.498 10.9582 13.4997 9.5V7.25C13.4997 6.78587 13.3153 6.34075 12.9871 6.01256C12.6589 5.68437 12.2138 5.5 11.7497 5.5ZM12.4997 9.5C12.4983 10.6931 12.0238 11.8369 11.1802 12.6805C10.3366 13.5241 9.19273 13.9987 7.99966 14C5.64779 14 5.00966 12.875 2.89466 9.145L2.60154 8.62813V8.625C2.50201 8.45292 2.47487 8.24836 2.52609 8.05628C2.5773 7.8642 2.70268 7.70031 2.87466 7.60063C2.98859 7.53463 3.11801 7.50012 3.24966 7.50063C3.3815 7.50043 3.51107 7.53499 3.62529 7.60083C3.73952 7.66667 3.83437 7.76145 3.90029 7.87563C3.90283 7.88063 3.90576 7.88544 3.90904 7.89L5.07591 9.765C5.1335 9.85695 5.21944 9.92767 5.32075 9.9665C5.42206 10.0053 5.53325 10.0101 5.63754 9.98022C5.74183 9.9503 5.83356 9.88727 5.89888 9.80064C5.9642 9.71402 5.99958 9.6085 5.99966 9.5V2.75C5.99966 2.55109 6.07868 2.36032 6.21933 2.21967C6.35999 2.07902 6.55075 2 6.74966 2C6.94858 2 7.13934 2.07902 7.27999 2.21967C7.42065 2.36032 7.49966 2.55109 7.49966 2.75V7C7.49966 7.13261 7.55234 7.25979 7.64611 7.35355C7.73988 7.44732 7.86706 7.5 7.99966 7.5C8.13227 7.5 8.25945 7.44732 8.35322 7.35355C8.44699 7.25979 8.49966 7.13261 8.49966 7V6.25C8.49966 6.05109 8.57868 5.86032 8.71933 5.71967C8.85999 5.57902 9.05075 5.5 9.24966 5.5C9.44858 5.5 9.63934 5.57902 9.77999 5.71967C9.92065 5.86032 9.99966 6.05109 9.99966 6.25V7.5C9.99966 7.63261 10.0523 7.75979 10.1461 7.85355C10.2399 7.94732 10.3671 8 10.4997 8C10.6323 8 10.7594 7.94732 10.8532 7.85355C10.947 7.75979 10.9997 7.63261 10.9997 7.5V7.25C10.9997 7.05109 11.0787 6.86032 11.2193 6.71967C11.36 6.57902 11.5508 6.5 11.7497 6.5C11.9486 6.5 12.1393 6.57902 12.28 6.71967C12.4206 6.86032 12.4997 7.05109 12.4997 7.25V9.5Z" fill="#242424"/>
</svg>
