<svg width="16" height="16" viewBox="0 0 16 16" fill="none" xmlns="http://www.w3.org/2000/svg">
<path d="M14.8171 12.3168L14.8169 12.3169C14.7753 12.3586 14.7259 12.3916 14.6715 12.4142C14.6172 12.4367 14.5589 12.4483 14.5 12.4483C14.4411 12.4483 14.3829 12.4367 14.3285 12.4142C14.2741 12.3916 14.2247 12.3586 14.1831 12.3169L14.183 12.3169L12.9118 11.0481L12.8817 11.0182L12.8463 11.0415C12.3401 11.3755 11.7279 11.5097 11.1285 11.4181C10.529 11.3265 9.98481 11.0156 9.60145 10.5457C9.21809 10.0757 9.02281 9.48024 9.05346 8.87456C9.0841 8.26888 9.33848 7.69614 9.76731 7.26731C10.1961 6.83848 10.7689 6.5841 11.3746 6.55345C11.9802 6.52281 12.5757 6.71809 13.0457 7.10145C13.5156 7.48481 13.8265 8.02896 13.9181 8.62845C14.0097 9.22795 13.8755 9.84011 13.5415 10.3463L13.5181 10.3818L13.5482 10.4118L14.8169 11.6806L14.8171 11.6807C14.8591 11.7224 14.8924 11.7719 14.9151 11.8265C14.9379 11.8811 14.9496 11.9396 14.9496 11.9987C14.9496 12.0579 14.9379 12.1164 14.9151 12.171C14.8924 12.2256 14.8591 12.2751 14.8171 12.3168ZM2.05208 4C2.05208 3.88121 2.09927 3.76728 2.18328 3.68328C2.26728 3.59927 2.38121 3.55208 2.5 3.55208H13.5C13.6188 3.55208 13.7327 3.59927 13.8167 3.68328C13.9007 3.76728 13.9479 3.88121 13.9479 4C13.9479 4.11879 13.9007 4.23272 13.8167 4.31672C13.7327 4.40073 13.6188 4.44792 13.5 4.44792H2.5C2.38121 4.44792 2.26728 4.40073 2.18328 4.31672C2.09927 4.23272 2.05208 4.11879 2.05208 4ZM7 8.44792H2.5C2.38121 8.44792 2.26728 8.40073 2.18328 8.31673C2.09927 8.23272 2.05208 8.11879 2.05208 8C2.05208 7.88121 2.09927 7.76728 2.18328 7.68328C2.26728 7.59927 2.38121 7.55208 2.5 7.55208H7C7.1188 7.55208 7.23272 7.59927 7.31673 7.68328C7.40073 7.76728 7.44792 7.88121 7.44792 8C7.44792 8.11879 7.40073 8.23272 7.31673 8.31673C7.23272 8.40073 7.1188 8.44792 7 8.44792ZM2.5 11.5521H8C8.1188 11.5521 8.23273 11.5993 8.31673 11.6833C8.40073 11.7673 8.44792 11.8812 8.44792 12C8.44792 12.1188 8.40073 12.2327 8.31673 12.3167C8.23273 12.4007 8.1188 12.4479 8 12.4479H2.5C2.38121 12.4479 2.26728 12.4007 2.18328 12.3167C2.09927 12.2327 2.05208 12.1188 2.05208 12C2.05208 11.8812 2.09927 11.7673 2.18328 11.6833C2.26728 11.5993 2.38121 11.5521 2.5 11.5521ZM11.5 10.5521C11.807 10.5521 12.1071 10.4611 12.3623 10.2905C12.6175 10.12 12.8165 9.87756 12.9339 9.59396C13.0514 9.31035 13.0821 8.99828 13.0223 8.6972C12.9624 8.39613 12.8146 8.11957 12.5975 7.90251C12.3804 7.68545 12.1039 7.53763 11.8028 7.47774C11.5017 7.41785 11.1897 7.44859 10.906 7.56606C10.6224 7.68354 10.38 7.88247 10.2095 8.13771C10.0389 8.39295 9.94792 8.69303 9.94792 9C9.94792 9.41164 10.1114 9.80642 10.4025 10.0975C10.6936 10.3886 11.0884 10.5521 11.5 10.5521Z" fill="#242424" stroke="#242424" stroke-width="0.104167"/>
</svg>
