<svg width="12" height="12" viewBox="0 0 12 12" fill="none" xmlns="http://www.w3.org/2000/svg">
<path d="M4.5 0.5H1.5C1.23478 0.5 0.98043 0.605357 0.792893 0.792893C0.605357 0.98043 0.5 1.23478 0.5 1.5V4.5C0.5 4.76522 0.605357 5.01957 0.792893 5.20711C0.98043 5.39464 1.23478 5.5 1.5 5.5H4.5C4.76522 5.5 5.01957 5.39464 5.20711 5.20711C5.39464 5.01957 5.5 4.76522 5.5 4.5V1.5C5.5 1.23478 5.39464 0.98043 5.20711 0.792893C5.01957 0.605357 4.76522 0.5 4.5 0.5ZM4.5 4.5H1.5V1.5H4.5V4.5ZM4.5 6.5H1.5C1.23478 6.5 0.98043 6.60536 0.792893 6.79289C0.605357 6.98043 0.5 7.23478 0.5 7.5V10.5C0.5 10.7652 0.605357 11.0196 0.792893 11.2071C0.98043 11.3946 1.23478 11.5 1.5 11.5H4.5C4.76522 11.5 5.01957 11.3946 5.20711 11.2071C5.39464 11.0196 5.5 10.7652 5.5 10.5V7.5C5.5 7.23478 5.39464 6.98043 5.20711 6.79289C5.01957 6.60536 4.76522 6.5 4.5 6.5ZM4.5 10.5H1.5V7.5H4.5V10.5ZM10.5 0.5H7.5C7.23478 0.5 6.98043 0.605357 6.79289 0.792893C6.60536 0.98043 6.5 1.23478 6.5 1.5V4.5C6.5 4.76522 6.60536 5.01957 6.79289 5.20711C6.98043 5.39464 7.23478 5.5 7.5 5.5H10.5C10.7652 5.5 11.0196 5.39464 11.2071 5.20711C11.3946 5.01957 11.5 4.76522 11.5 4.5V1.5C11.5 1.23478 11.3946 0.98043 11.2071 0.792893C11.0196 0.605357 10.7652 0.5 10.5 0.5ZM10.5 4.5H7.5V1.5H10.5V4.5ZM6.5 9V7C6.5 6.86739 6.55268 6.74022 6.64645 6.64645C6.74022 6.55268 6.86739 6.5 7 6.5C7.13261 6.5 7.25979 6.55268 7.35355 6.64645C7.44732 6.74022 7.5 6.86739 7.5 7V9C7.5 9.13261 7.44732 9.25979 7.35355 9.35355C7.25979 9.44732 7.13261 9.5 7 9.5C6.86739 9.5 6.74022 9.44732 6.64645 9.35355C6.55268 9.25979 6.5 9.13261 6.5 9ZM11.5 8C11.5 8.13261 11.4473 8.25979 11.3536 8.35355C11.2598 8.44732 11.1326 8.5 11 8.5H9.5V11C9.5 11.1326 9.44732 11.2598 9.35355 11.3536C9.25979 11.4473 9.13261 11.5 9 11.5H7C6.86739 11.5 6.74022 11.4473 6.64645 11.3536C6.55268 11.2598 6.5 11.1326 6.5 11C6.5 10.8674 6.55268 10.7402 6.64645 10.6464C6.74022 10.5527 6.86739 10.5 7 10.5H8.5V7C8.5 6.86739 8.55268 6.74022 8.64645 6.64645C8.74022 6.55268 8.86739 6.5 9 6.5C9.13261 6.5 9.25979 6.55268 9.35355 6.64645C9.44732 6.74022 9.5 6.86739 9.5 7V7.5H11C11.1326 7.5 11.2598 7.55268 11.3536 7.64645C11.4473 7.74022 11.5 7.86739 11.5 8ZM11.5 10V11C11.5 11.1326 11.4473 11.2598 11.3536 11.3536C11.2598 11.4473 11.1326 11.5 11 11.5C10.8674 11.5 10.7402 11.4473 10.6464 11.3536C10.5527 11.2598 10.5 11.1326 10.5 11V10C10.5 9.86739 10.5527 9.74022 10.6464 9.64645C10.7402 9.55268 10.8674 9.5 11 9.5C11.1326 9.5 11.2598 9.55268 11.3536 9.64645C11.4473 9.74022 11.5 9.86739 11.5 10Z" fill="#138BFB"/>
</svg>
