<svg width="14" height="12" viewBox="0 0 14 12" fill="none" xmlns="http://www.w3.org/2000/svg">
<path d="M13.8537 9.14653C13.9002 9.19296 13.9371 9.24811 13.9623 9.30881C13.9874 9.36951 14.0004 9.43457 14.0004 9.50028C14.0004 9.56599 13.9874 9.63105 13.9623 9.69175C13.9371 9.75245 13.9002 9.80759 13.8537 9.85403L12.3537 11.354C12.2599 11.4478 12.1327 11.5006 12 11.5006C11.8673 11.5006 11.7401 11.4478 11.6462 11.354C11.5524 11.2602 11.4997 11.133 11.4997 11.0003C11.4997 10.8676 11.5524 10.7403 11.6462 10.6465L12.2931 10.0003H11.5587C10.8426 9.99968 10.1368 9.82844 9.50003 9.50074C8.86321 9.17304 8.31365 8.69832 7.89687 8.1159L5.28937 4.4659C4.96519 4.01294 4.53775 3.64372 4.04246 3.38885C3.54716 3.13398 2.99827 3.00077 2.44125 3.00028H1C0.867392 3.00028 0.740215 2.9476 0.646447 2.85383C0.552678 2.76006 0.5 2.63289 0.5 2.50028C0.5 2.36767 0.552678 2.24049 0.646447 2.14672C0.740215 2.05296 0.867392 2.00028 1 2.00028H2.44125C3.15743 2.00087 3.86316 2.17211 4.49997 2.49981C5.13679 2.82751 5.68635 3.30223 6.10312 3.88465L8.71062 7.53465C9.03481 7.98762 9.46225 8.35683 9.95754 8.61171C10.4528 8.86658 11.0017 8.99978 11.5587 9.00028H12.2931L11.6462 8.35403C11.5524 8.26021 11.4997 8.13296 11.4997 8.00028C11.4997 7.8676 11.5524 7.74035 11.6462 7.64653C11.7401 7.55271 11.8673 7.5 12 7.5C12.1327 7.5 12.2599 7.55271 12.3537 7.64653L13.8537 9.14653ZM7.9375 4.68778C7.99093 4.72594 8.05136 4.75321 8.11533 4.76803C8.1793 4.78284 8.24556 4.78491 8.31033 4.77411C8.3751 4.76332 8.4371 4.73987 8.49281 4.70511C8.54852 4.67035 8.59684 4.62496 8.635 4.57153L8.71 4.46715C9.03411 4.01387 9.46159 3.64436 9.95701 3.38926C10.4524 3.13416 11.0015 3.00082 11.5587 3.00028H12.2931L11.6462 3.64653C11.5524 3.74035 11.4997 3.8676 11.4997 4.00028C11.4997 4.13296 11.5524 4.26021 11.6462 4.35403C11.7401 4.44785 11.8673 4.50056 12 4.50056C12.1327 4.50056 12.2599 4.44785 12.3537 4.35403L13.8537 2.85403C13.9002 2.80759 13.9371 2.75245 13.9623 2.69175C13.9874 2.63105 14.0004 2.56599 14.0004 2.50028C14.0004 2.43457 13.9874 2.36951 13.9623 2.30881C13.9371 2.24811 13.9002 2.19296 13.8537 2.14653L12.3537 0.646528C12.2599 0.552708 12.1327 0.5 12 0.5C11.8673 0.5 11.7401 0.552708 11.6462 0.646528C11.5524 0.740348 11.4997 0.867596 11.4997 1.00028C11.4997 1.13296 11.5524 1.26021 11.6462 1.35403L12.2931 2.00028H11.5587C10.8426 2.00087 10.1368 2.17211 9.50003 2.49981C8.86321 2.82751 8.31365 3.30223 7.89687 3.88465L7.82187 3.98903C7.78348 4.04246 7.75601 4.10295 7.74104 4.16702C7.72607 4.23109 7.7239 4.29749 7.73464 4.3624C7.74538 4.42732 7.76883 4.48947 7.80364 4.54531C7.83845 4.60114 7.88394 4.64956 7.9375 4.68778ZM6.0625 7.31278C6.00907 7.27461 5.94864 7.24734 5.88467 7.23253C5.8207 7.21772 5.75444 7.21565 5.68967 7.22644C5.6249 7.23724 5.56289 7.26068 5.50719 7.29544C5.45148 7.3302 5.40316 7.37559 5.365 7.42903L5.29 7.5334C4.96589 7.98669 4.53841 8.35619 4.04299 8.61129C3.54757 8.86639 2.99849 8.99974 2.44125 9.00028H1C0.867392 9.00028 0.740215 9.05296 0.646447 9.14672C0.552678 9.24049 0.5 9.36767 0.5 9.50028C0.5 9.63289 0.552678 9.76006 0.646447 9.85383C0.740215 9.9476 0.867392 10.0003 1 10.0003H2.44125C3.15743 9.99968 3.86316 9.82844 4.49997 9.50074C5.13679 9.17304 5.68635 8.69832 6.10312 8.1159L6.17812 8.01153C6.21652 7.95809 6.24399 7.89761 6.25896 7.83353C6.27393 7.76946 6.2761 7.70307 6.26536 7.63815C6.25462 7.57324 6.23117 7.51108 6.19636 7.45525C6.16155 7.39941 6.11606 7.351 6.0625 7.31278Z" fill="white"/>
</svg>
