<svg width="16" height="16" viewBox="0 0 16 16" fill="none" xmlns="http://www.w3.org/2000/svg">
<path d="M2.94792 5V2.5V2.44792H3H4C4.1188 2.44792 4.23272 2.40073 4.31673 2.31672C4.40073 2.23272 4.44792 2.11879 4.44792 2C4.44792 1.88121 4.40073 1.76728 4.31673 1.68328C4.23272 1.59927 4.1188 1.55208 4 1.55208H3C2.7486 1.55208 2.50749 1.65195 2.32972 1.82972C2.15195 2.00749 2.05208 2.2486 2.05208 2.5V4.99999C2.05208 5 2.05208 5 2.05208 5C2.05221 5.9615 2.40321 6.8899 3.03923 7.61099C3.67524 8.33207 4.55255 8.79626 5.50651 8.91645L5.55208 8.92219V8.96813V11.4999C5.5529 12.2815 5.86375 13.0309 6.41642 13.5836C6.9691 14.1363 7.71845 14.4471 8.50005 14.4479H9.99993C10.704 14.447 11.3846 14.1946 11.9189 13.7361C12.4523 13.2785 12.8049 12.6458 12.9135 11.9516V11.9113L12.9559 11.9032C13.5513 11.7901 14.0835 11.4602 14.4497 10.9774C14.8159 10.4945 14.9899 9.89296 14.9381 9.28917C14.8864 8.68538 14.6125 8.12225 14.1695 7.70876C13.7264 7.29526 13.1458 7.06078 12.5399 7.0507C11.934 7.04062 11.3458 7.25565 10.8893 7.65419C10.4328 8.05272 10.1403 8.60643 10.0685 9.20816C9.99667 9.8099 10.1506 10.4169 10.5005 10.9117C10.8504 11.4065 11.3714 11.7539 11.9627 11.8867L12.0135 11.8981L12.0021 11.949C11.8994 12.4035 11.6454 12.8097 11.2817 13.101C10.918 13.3923 10.4661 13.5513 10.0001 13.5521H10H8.5C7.95575 13.5521 7.4338 13.3359 7.04896 12.951C6.66412 12.5662 6.44792 12.0442 6.44792 11.5V8.9675V8.92165L6.4934 8.91584C8.43413 8.66793 9.94792 6.97456 9.94792 4.94813V2.5C9.94792 2.2486 9.84805 2.00749 9.67028 1.82972C9.49251 1.65195 9.2514 1.55208 9 1.55208H8C7.88121 1.55208 7.76728 1.59927 7.68328 1.68328C7.59928 1.76728 7.55208 1.88121 7.55208 2C7.55208 2.11879 7.59928 2.23272 7.68328 2.31672C7.76728 2.40073 7.88121 2.44792 8 2.44792H9H9.05208V2.5V4.94813C9.05208 6.63701 7.70191 8.03044 6.04069 8.05208L2.94792 5ZM2.94792 5C2.94792 5 2.94792 5 2.94792 5V5ZM13.1979 9.5C13.1979 9.63804 13.157 9.77297 13.0803 9.88774C13.0036 10.0025 12.8946 10.092 12.7671 10.1448C12.6396 10.1976 12.4992 10.2114 12.3638 10.1845C12.2285 10.1576 12.1041 10.0911 12.0065 9.9935C11.9089 9.8959 11.8424 9.77154 11.8155 9.63616C11.7886 9.50078 11.8024 9.36045 11.8552 9.23292C11.908 9.10539 11.9975 8.99639 12.1123 8.9197C12.227 8.84302 12.362 8.80208 12.5 8.80208C12.6851 8.80208 12.8626 8.87561 12.9935 9.0065C13.1244 9.13738 13.1979 9.3149 13.1979 9.5ZM14.0521 9.5C14.0521 9.19303 13.9611 8.89295 13.7905 8.63771C13.62 8.38247 13.3776 8.18354 13.094 8.06606C12.8104 7.94859 12.4983 7.91785 12.1972 7.97774C11.8961 8.03763 11.6196 8.18545 11.4025 8.40251C11.1854 8.61957 11.0376 8.89613 10.9777 9.1972C10.9179 9.49828 10.9486 9.81035 11.0661 10.094C11.1835 10.3776 11.3825 10.62 11.6377 10.7905C11.8929 10.9611 12.193 11.0521 12.5 11.0521C12.9116 11.0521 13.3064 10.8886 13.5975 10.5975C13.8886 10.3064 14.0521 9.91164 14.0521 9.5Z" fill="#242424" stroke="#242424" stroke-width="0.104167"/>
</svg>
