<svg width="16" height="16" viewBox="0 0 16 16" fill="none" xmlns="http://www.w3.org/2000/svg">
<path d="M9.00002 5.00026C9.00002 4.86765 9.05269 4.74047 9.14646 4.6467C9.24023 4.55294 9.36741 4.50026 9.50002 4.50026H15.5C15.6326 4.50026 15.7598 4.55294 15.8536 4.6467C15.9473 4.74047 16 4.86765 16 5.00026C16 5.13287 15.9473 5.26004 15.8536 5.35381C15.7598 5.44758 15.6326 5.50026 15.5 5.50026H9.50002C9.36741 5.50026 9.24023 5.44758 9.14646 5.35381C9.05269 5.26004 9.00002 5.13287 9.00002 5.00026ZM15.5 7.50026H9.50002C9.36741 7.50026 9.24023 7.55294 9.14646 7.6467C9.05269 7.74047 9.00002 7.86765 9.00002 8.00026C9.00002 8.13287 9.05269 8.26004 9.14646 8.35381C9.24023 8.44758 9.36741 8.50026 9.50002 8.50026H15.5C15.6326 8.50026 15.7598 8.44758 15.8536 8.35381C15.9473 8.26004 16 8.13287 16 8.00026C16 7.86765 15.9473 7.74047 15.8536 7.6467C15.7598 7.55294 15.6326 7.50026 15.5 7.50026ZM15.5 10.5003H11C10.8674 10.5003 10.7402 10.5529 10.6465 10.6467C10.5527 10.7405 10.5 10.8676 10.5 11.0003C10.5 11.1329 10.5527 11.26 10.6465 11.3538C10.7402 11.4476 10.8674 11.5003 11 11.5003H15.5C15.6326 11.5003 15.7598 11.4476 15.8536 11.3538C15.9473 11.26 16 11.1329 16 11.0003C16 10.8676 15.9473 10.7405 15.8536 10.6467C15.7598 10.5529 15.6326 10.5003 15.5 10.5003ZM9.48439 11.8753C9.50074 11.9389 9.50439 12.0051 9.49514 12.0701C9.4859 12.1351 9.46393 12.1977 9.4305 12.2542C9.39707 12.3107 9.35283 12.3601 9.3003 12.3996C9.24778 12.439 9.18801 12.4677 9.12439 12.484C9.08364 12.495 9.0416 12.5005 8.99939 12.5003C8.8885 12.5003 8.78074 12.4635 8.69305 12.3956C8.60537 12.3277 8.54274 12.2326 8.51502 12.1253C8.13002 10.629 6.61877 9.50026 4.99939 9.50026C3.38002 9.50026 1.86877 10.6284 1.48377 12.1253C1.45061 12.2537 1.36779 12.3638 1.25351 12.4312C1.13923 12.4985 1.00286 12.5178 0.874391 12.4846C0.745927 12.4515 0.635894 12.3687 0.568498 12.2544C0.501102 12.1401 0.481864 12.0037 0.515016 11.8753C0.864391 10.5184 1.88002 9.41963 3.16877 8.87526C2.67254 8.49305 2.30838 7.9651 2.12738 7.36546C1.94638 6.76582 1.9576 6.12456 2.15948 5.53162C2.36136 4.93869 2.74377 4.42381 3.25307 4.0592C3.76237 3.69459 4.37303 3.49854 4.99939 3.49854C5.62575 3.49854 6.23641 3.69459 6.74571 4.0592C7.25501 4.42381 7.63742 4.93869 7.8393 5.53162C8.04118 6.12456 8.0524 6.76582 7.8714 7.36546C7.6904 7.9651 7.32625 8.49305 6.83002 8.87526C8.11939 9.41963 9.13502 10.5184 9.48439 11.8753ZM5.00002 8.50026C5.39558 8.50026 5.78226 8.38296 6.11116 8.1632C6.44005 7.94343 6.6964 7.63108 6.84778 7.26562C6.99915 6.90017 7.03876 6.49804 6.96159 6.11008C6.88442 5.72212 6.69393 5.36575 6.41423 5.08604C6.13452 4.80634 5.77816 4.61586 5.3902 4.53869C5.00223 4.46152 4.6001 4.50112 4.23465 4.6525C3.8692 4.80387 3.55684 5.06022 3.33708 5.38912C3.11731 5.71802 3.00002 6.1047 3.00002 6.50026C3.00002 7.03069 3.21073 7.5394 3.5858 7.91447C3.96087 8.28954 4.46958 8.50026 5.00002 8.50026Z" fill="white"/>
</svg>
